<svg version="1.1" id="Layer_1" xmlns="http://www.w3.org/2000/svg" xmlns:xlink="http://www.w3.org/1999/xlink" x="0px" y="0px"
	 width="100%" viewBox="0 0 100 100" enable-background="new 0 0 100 100" xml:space="preserve">
<path fill="#5075B2" opacity="1.000000" stroke="none" 
	d="
M95.347870,100.637917 
	C65.979103,101.000000 36.958210,101.000000 7.468657,101.000000 
	C4.869837,99.386269 4.760195,97.025337 4.750257,94.681320 
	C4.626802,65.562424 4.621642,36.443378 4.764650,7.324596 
	C4.774261,5.367733 4.645830,3.273296 6.652128,1.362086 
	C36.020893,1.000000 65.041786,1.000000 94.531342,1.000000 
	C97.130165,2.613732 97.239799,4.974657 97.249733,7.318676 
	C97.373192,36.437569 97.378365,65.556610 97.235344,94.675392 
	C97.225739,96.632263 97.354172,98.726707 95.347870,100.637917 
z"/>
<path fill="#000000" opacity="1.000000" stroke="none" 
	d="
M6.500528,1.000000 
	C6.998013,34.020901 6.996027,67.041801 6.997020,100.531349 
	C1.941701,102.103813 0.791260,100.214714 0.846168,95.052063 
	C1.162008,65.355583 1.111482,35.653130 0.875587,5.955164 
	C0.841576,1.673373 1.851882,0.145747 6.500528,1.000000 
z"/>
<path fill="#000000" opacity="1.000000" stroke="none" 
	d="
M95.499474,101.000000 
	C95.001984,67.979103 95.003975,34.958199 95.002983,1.468649 
	C100.058296,-0.103811 101.208740,1.785279 101.153831,6.947937 
	C100.837990,36.644409 100.888527,66.346855 101.124413,96.044807 
	C101.158424,100.326561 100.148186,101.854294 95.499474,101.000000 
z"/>
<path fill="#7C0675" opacity="1.000000" stroke="none" 
	d="
M22.083920,94.855614 
	C13.704828,94.843788 13.701969,94.843788 13.701555,87.115906 
	C13.700238,62.486904 13.819108,37.856850 13.599575,13.229805 
	C13.556866,8.438698 14.923037,6.982817 19.759354,7.039347 
	C40.724422,7.284400 61.694984,7.251364 82.661110,7.056776 
	C86.970459,7.016780 88.424316,8.183790 88.391060,12.651174 
	C88.200249,38.277229 88.221031,63.905895 88.375740,89.532433 
	C88.400673,93.662514 87.125793,94.972687 82.977074,94.935783 
	C62.842804,94.756676 42.706062,94.855438 22.083920,94.855614 
z"/>
<path fill="#5A0C55" opacity="1.000000" stroke="none" 
	d="
M53.814796,48.832924 
	C57.374897,46.477032 60.075130,46.818447 61.854759,50.529987 
	C63.464428,53.887062 66.927483,54.392467 68.996651,51.120659 
	C70.759544,48.333115 73.208710,47.532196 76.044151,47.120537 
	C77.826164,46.861820 79.661942,47.431141 80.258957,49.111580 
	C81.110359,51.508068 82.535980,52.747444 84.835144,53.787422 
	C87.682678,55.075455 87.176170,57.628414 85.543869,59.654434 
	C83.900032,61.694775 82.731461,63.307037 85.621262,65.284592 
	C86.992943,66.223274 87.068245,67.838531 86.230400,69.338837 
	C85.130135,71.309044 83.276817,71.970955 81.185822,71.993607 
	C75.525856,72.054924 69.865089,72.050537 64.204628,72.054062 
	C59.225597,72.057175 54.245377,72.099060 49.267853,72.006775 
	C44.592220,71.920090 40.280445,71.927780 36.324875,75.570129 
	C32.982342,78.647987 23.305334,76.722511 20.034962,73.235069 
	C15.488541,68.386879 14.924071,58.963589 18.864801,53.700291 
	C23.803936,47.103512 30.886618,46.204090 37.553120,51.327076 
	C42.561367,55.175747 50.035210,54.121449 53.814796,48.832924 
z"/>
<path fill="#F7F2F7" opacity="1.000000" stroke="none" 
	d="
M70.302635,20.952290 
	C69.969421,23.229679 69.953247,25.051701 69.813393,26.864178 
	C69.004166,37.351116 61.066040,44.891724 50.924866,44.840675 
	C40.762424,44.789520 32.888195,37.195541 32.175095,26.721939 
	C32.073971,25.236736 32.125076,23.741171 32.031830,21.836136 
	C31.334076,20.427990 30.877943,19.353109 30.733078,18.195318 
	C30.335058,15.014300 31.771128,13.053566 34.918129,12.617364 
	C37.821877,12.214881 39.711937,14.266553 39.612892,17.533150 
	C39.583019,18.518429 39.309822,19.493893 38.953003,20.972878 
	C36.731667,33.762390 45.588333,39.529968 53.301533,38.135124 
	C60.138802,36.898682 63.476521,31.762344 63.253487,21.896023 
	C63.020699,20.504639 62.730923,19.550955 62.534172,18.578524 
	C62.113945,16.501537 62.217907,14.572923 64.198639,13.302027 
	C65.888878,12.217517 67.671501,12.257470 69.319473,13.394197 
	C71.153603,14.659332 71.723763,16.459209 71.196396,18.613077 
	C71.038666,19.257296 70.815552,19.880104 70.302635,20.952290 
z"/>
<path fill="#48465B" opacity="1.000000" stroke="none" 
	d="
M39.159309,21.250408 
	C38.732738,20.197620 38.556400,18.903543 38.471432,17.603495 
	C38.345833,15.681743 38.017345,13.850993 35.621685,13.733813 
	C33.042271,13.607646 32.265263,15.321393 32.195415,17.555014 
	C32.164597,18.540623 32.157288,19.526964 32.048622,20.967422 
	C28.538227,19.070715 28.052183,16.083542 30.586073,12.934778 
	C32.829861,10.146510 35.752079,9.344499 38.929928,11.609635 
	C42.175812,13.923266 42.314518,16.934036 39.159309,21.250408 
z"/>
<path fill="#47475B" opacity="1.000000" stroke="none" 
	d="
M70.363342,21.216198 
	C69.981255,21.088608 69.915344,20.765921 69.859016,20.441566 
	C69.422874,17.929970 71.028130,13.941321 66.770386,13.868974 
	C61.995903,13.787846 64.115494,18.151854 63.277905,21.084032 
	C59.886230,18.799599 59.220825,15.687572 62.152496,12.467092 
	C64.662270,9.710072 67.738136,9.497809 70.539307,12.035707 
	C73.652832,14.856607 73.949402,17.972424 70.363342,21.216198 
z"/>
<path fill="#EFE8EF" opacity="1.000000" stroke="none" 
	d="
M76.195091,59.745461 
	C76.303383,60.676479 75.643761,62.174751 77.221504,61.188366 
	C78.709343,60.258186 79.194168,58.656082 79.810532,57.097000 
	C80.353973,55.722374 81.796631,55.919609 82.823418,56.343552 
	C83.940712,56.804859 83.337944,57.979168 82.797356,58.341812 
	C77.732056,61.739819 80.102509,65.002434 83.369835,68.151947 
	C78.058258,71.074753 78.030922,65.934746 76.181267,64.116692 
	C75.003136,64.189377 75.194954,65.017609 75.074677,65.582596 
	C74.746422,67.124489 75.049583,69.346146 72.542381,68.951050 
	C69.523811,68.475388 71.701225,66.453079 71.726112,65.127441 
	C71.810646,60.624203 74.574524,56.471958 73.222229,51.676857 
	C72.857048,50.381962 75.175934,50.497635 76.331718,50.268955 
	C77.717964,49.994682 78.045364,51.001625 77.830795,52.107513 
	C77.358788,54.540245 76.788261,56.953865 76.195091,59.745461 
z"/>
<path fill="#EBE2EB" opacity="1.000000" stroke="none" 
	d="
M29.393032,68.440979 
	C28.736948,68.962227 27.809351,68.912140 27.520166,69.317505 
	C27.062094,69.959602 27.767277,70.631493 28.378080,70.749977 
	C30.324751,71.127579 32.301838,71.348396 34.641251,71.718719 
	C35.123550,71.989342 35.231773,72.171028 35.167549,72.618973 
	C29.938742,75.159317 26.526258,73.534920 23.291336,69.190102 
	C21.513279,66.801994 19.086781,65.087784 19.176907,61.753372 
	C19.337227,55.822041 22.728117,52.355812 29.882263,51.258064 
	C30.288809,51.581337 30.363344,51.812256 30.498209,52.402317 
	C30.022661,54.995014 27.142183,54.688030 26.343525,57.102448 
	C24.778702,61.833076 25.195019,64.085106 29.476765,67.015022 
	C29.531603,67.600037 29.469742,67.836990 29.393032,68.440979 
z"/>
<path fill="#F0E9F0" opacity="1.000000" stroke="none" 
	d="
M29.742119,68.760513 
	C29.314819,68.532173 29.251451,68.256325 29.098660,67.565445 
	C29.289421,62.635242 31.669008,58.263279 29.969109,53.244728 
	C30.040348,52.624161 30.075312,52.369438 30.162273,51.732563 
	C37.120148,52.955029 38.983669,59.964149 34.082211,65.831779 
	C32.991795,67.137138 31.631233,68.028503 29.742119,68.760513 
z"/>
<path fill="#E5D9E4" opacity="1.000000" stroke="none" 
	d="
M68.412964,67.090637 
	C66.250931,69.604195 63.619770,70.192436 61.334408,68.193527 
	C58.817677,65.992256 59.658070,62.978497 60.989208,60.403221 
	C62.760811,56.975811 65.555450,55.476116 69.740433,56.972511 
	C65.484306,57.777840 63.401375,60.122456 63.723873,64.346237 
	C63.883934,66.442520 64.888786,67.335030 67.394379,66.838478 
	C68.012177,66.791336 68.221664,66.784042 68.412964,67.090637 
z"/>
<path fill="#E7DCE7" opacity="1.000000" stroke="none" 
	d="
M44.046555,67.681229 
	C44.962421,64.467041 46.984455,61.661427 47.105457,58.279785 
	C47.158157,56.807045 48.281658,56.352909 49.606277,56.599232 
	C51.058121,56.869213 50.579788,57.923721 50.548412,58.921772 
	C50.457905,61.800823 48.725418,64.433212 49.832012,67.577011 
	C50.427948,69.270035 48.220871,69.539093 44.789421,67.598991 
	C44.162983,67.554596 43.916340,67.605309 44.046555,67.681229 
z"/>
<path fill="#EEE6ED" opacity="1.000000" stroke="none" 
	d="
M44.051704,67.407227 
	C44.423416,67.706429 44.391857,67.608292 44.400742,67.556091 
	C42.733135,68.558800 40.978081,70.157181 38.992283,68.660416 
	C37.228523,67.331009 38.259121,65.312408 38.546017,63.540443 
	C38.809963,61.910252 39.498348,60.087063 39.040447,58.655807 
	C38.065491,55.608387 40.655781,56.709583 41.524464,56.429401 
	C43.318630,55.850708 43.263344,57.352436 43.063732,58.544056 
	C42.734447,60.509777 42.291481,62.456196 41.939445,64.418465 
	C41.686977,65.825760 41.635017,67.160995 44.051704,67.407227 
z"/>
<path fill="#EFE8EE" opacity="1.000000" stroke="none" 
	d="
M56.781239,66.431839 
	C58.281090,69.502937 55.900055,68.827881 54.789600,69.075012 
	C53.676765,69.322685 52.918953,68.812035 52.846436,67.512405 
	C52.658401,64.142441 55.072296,61.057972 53.765209,57.446316 
	C53.508869,56.738022 55.913643,56.224651 57.167297,56.360367 
	C58.614334,56.517021 58.158909,57.845058 58.021805,58.722034 
	C57.639053,61.170254 57.130737,63.598846 56.781239,66.431839 
z"/>
<path fill="#EEE6ED" opacity="1.000000" stroke="none" 
	d="
M58.698479,51.270649 
	C59.298443,53.250832 58.653416,54.145756 56.877083,53.961330 
	C55.943378,53.864384 55.203308,53.117512 55.338520,52.316254 
	C55.640572,50.526291 57.008701,50.563248 58.698479,51.270649 
z"/>
<path fill="#E5D9E4" opacity="1.000000" stroke="none" 
	d="
M67.950531,66.950279 
	C68.135544,66.629318 68.468391,66.460014 68.801239,66.290710 
	C68.813293,66.541153 68.825348,66.791603 68.616096,67.223282 
	C68.394791,67.404526 68.098366,67.101936 67.950531,66.950279 
z"/>
<path fill="#E7DCE6" opacity="1.000000" stroke="none" 
	d="
M35.266552,72.811325 
	C34.995995,72.705597 34.996876,72.525970 35.006542,72.076996 
	C35.990215,71.667496 35.760429,72.204529 35.266552,72.811325 
z"/>
<path fill="#590A54" opacity="1.000000" stroke="none" 
	d="
M29.627771,52.927601 
	C33.279915,56.687023 33.132832,61.002548 29.273090,66.886780 
	C25.307074,68.300125 23.654099,66.539429 23.734715,63.065830 
	C23.832819,58.838634 23.796022,54.354259 29.627771,52.927601 
z"/>
<path fill="#780470" opacity="1.000000" stroke="none" 
	d="
M27.858223,62.706749 
	C26.389372,60.803341 27.155697,59.126675 28.316137,56.578644 
	C29.222202,59.245411 29.307602,60.973679 27.858223,62.706749 
z"/>
</svg>